<svg width="64" height="64" xmlns="http://www.w3.org/2000/svg" xml:space="preserve" version="1.1">
 <desc>Created with Fabric.js 5.2.4</desc>

 <g>
  <title>Layer 1</title>
  <g id="svg_17" stroke="null"/>
  <g id="svg_6">
   <g id="svg_1">
    <path transform="rotate(35.0796 20.948 41.7274)" fill="#444444" d="m29.01038,41.75931l-0.05872,13.5205l0,0c-0.00769,1.77122 -0.91377,3.3712 -2.37251,4.52617c-1.45871,1.15497 -3.47006,1.86493 -5.68831,1.85612c-2.21822,-0.00881 -4.22334,-0.73471 -5.67199,-1.9012c-1.44863,-1.16651 -2.34078,-2.77361 -2.33309,-4.54485l0.05871,-13.52049l0.05873,-13.52051l0,0l0,0c0.0077,-1.77121 0.91378,-3.37119 2.37249,-4.52616c1.45872,-1.15496 3.47008,-1.86492 5.68831,-1.85612c2.21824,0.0088 4.22336,0.73469 5.67199,1.9012" id="svg_30" stroke-width="6" fill-opacity="0" stroke="#2177ce"/>
    <path stroke="#444444" fill="#2177ce" stroke-width="0" stroke-opacity="0" opacity="undefined" d="m33.32268,31.35218c-0.64879,-1.61994 0.03911,-3.43257 1.53717,-4.05043c1.49806,-0.61787 3.23701,0.1938 3.8858,1.81374c0.64881,1.61993 -0.03911,3.43255 -1.53717,4.05043c-1.49806,0.61787 -3.237,-0.19381 -3.8858,-1.81374z" id="svg_39"/>
    <path transform="rotate(-54.9204 27.4399 46.4976)" stroke="#444444" fill="#2177ce" d="m21.56978,51.97404l5.47781,-5.47778l-5.47781,-5.47781l3.13084,-3.13051l8.60931,8.60832l-8.60931,8.61098" id="svg_40" stroke-opacity="0"/>
   </g>
   <g transform="rotate(180 43.5508 22.0014)" id="svg_5">
    <path transform="rotate(35.0796 43.5507 22.0014)" fill="#444444" d="m51.61311,22.03328l-0.05872,13.5205l0,0c-0.00769,1.77122 -0.91377,3.3712 -2.37251,4.52617c-1.45871,1.15497 -3.47006,1.86493 -5.68831,1.85612c-2.21822,-0.00881 -4.22334,-0.73471 -5.67199,-1.9012c-1.44863,-1.16651 -2.34078,-2.77361 -2.33309,-4.54485l0.05871,-13.52049l0.05873,-13.52051l0,0l0,0c0.0077,-1.77121 0.91378,-3.37119 2.37249,-4.52616c1.45872,-1.15496 3.47008,-1.86492 5.68831,-1.85612c2.21824,0.0088 4.22336,0.73469 5.67199,1.9012" id="svg_2" stroke-width="6" fill-opacity="0" stroke="#2177ce"/>
    <path stroke="#444444" fill="#2177ce" stroke-width="0" stroke-opacity="0" opacity="undefined" d="m55.92541,11.62615c-0.64879,-1.61995 0.03911,-3.43257 1.53717,-4.05044c1.49806,-0.61786 3.23701,0.1938 3.8858,1.81375c0.64881,1.61992 -0.03911,3.43255 -1.53717,4.05043c-1.49805,0.61786 -3.23699,-0.19382 -3.8858,-1.81374z" id="svg_3"/>
    <path transform="rotate(-54.9204 50.0426 26.7716)" stroke="#444444" fill="#2177ce" d="m44.17251,32.24801l5.47781,-5.47778l-5.47781,-5.4778l3.13084,-3.13051l8.60931,8.60831l-8.60931,8.61098" id="svg_4" stroke-opacity="0"/>
   </g>
  </g>
 </g>
</svg>